<!DOCTYPE svg PUBLIC "-//W3C//DTD SVG 1.1//EN" "http://www.w3.org/Graphics/SVG/1.1/DTD/svg11.dtd">
<!-- Uploaded to: SVG Repo, www.svgrepo.com, Transformed by: SVG Repo Mixer Tools -->
<svg version="1.1" id="_x32_" xmlns="http://www.w3.org/2000/svg" xmlns:xlink="http://www.w3.org/1999/xlink" viewBox="0 0 512 512" xml:space="preserve" width="800px" height="800px" fill="#000000">
<g id="SVGRepo_bgCarrier" stroke-width="0"/>
<g id="SVGRepo_tracerCarrier" stroke-linecap="round" stroke-linejoin="round"/>
<g id="SVGRepo_iconCarrier"> <style type="text/css"> .st0{fill:#ffffff;} </style> <g> <rect x="152.454" y="446.586" class="st0" width="281.238" height="65.414"/> <path class="st0" d="M209.138,277.882L171.242,417.06h241.336c0,0,8.442-121.141,19.004-243.569 c6.908-80.147-61.224-160.438-157.07-149.051c-6.084,0.721-11.855,1.957-17.476,3.428L181.97,0.576 c-3.624-1.318-7.691-0.329-10.305,2.502c-2.615,2.832-3.285,6.949-1.689,10.46l23.39,51.362 c-28.522,27.498-46.601,62.202-58.166,83.029c-15.834,28.496-54.646,106.542-54.646,106.542c-4.89,9.533-1.544,21.218,7.639,26.737 l45.452,27.271c10.563,6.341,23.875,5.848,33.953-1.266L209.138,277.882z M213.441,140.424c11.273,0,20.415,9.132,20.415,20.404 c0,11.263-9.142,20.405-20.415,20.405c-11.263,0-20.405-9.142-20.405-20.405C193.036,149.556,202.178,140.424,213.441,140.424z"/> </g> </g>
</svg>